<?xml version="1.0" standalone="no"?>
<!DOCTYPE svg PUBLIC "-//W3C//DTD SVG 20010904//EN"
 "http://www.w3.org/TR/2001/REC-SVG-20010904/DTD/svg10.dtd">
<svg version="1.0" xmlns="http://www.w3.org/2000/svg"
 width="1000.000000pt" height="1000.000000pt" viewBox="0 0 1000.000000 1000.000000"
 preserveAspectRatio="xMidYMid meet">
<metadata>
Created by potrace 1.11, written by Peter Selinger 2001-2013
</metadata>
<g transform="translate(0.000000,1000.000000) scale(0.100000,-0.100000)"
fill="#000000" stroke="none">
<path d="M1928 5432 c-32 -2 -58 -7 -58 -13 0 -5 6 -9 13 -8 6 1 22 1 33 0 22
-1 22 -1 21 -316 l0 -315 -35 0 c-19 0 -32 -3 -28 -7 9 -9 216 -10 216 -1 0 4
-16 8 -35 8 l-34 0 3 138 c2 75 9 152 15 171 24 78 71 117 126 107 56 -11 65
-46 65 -247 l0 -169 -32 0 c-17 0 -28 -3 -24 -7 9 -10 206 -10 206 0 0 4 -13
7 -30 7 -16 0 -30 3 -30 8 -1 4 -2 81 -3 172 -3 133 -6 171 -20 197 -25 48
-62 68 -122 67 -58 -1 -98 -23 -126 -69 -22 -35 -21 -41 -23 140 -1 159 10
143 -98 137z"/>
<path d="M2783 5433 c-35 -2 -63 -8 -63 -14 0 -5 6 -9 13 -8 6 1 21 1 32 0 20
-1 20 -7 20 -316 l0 -315 -34 0 c-19 0 -31 -3 -28 -7 10 -9 207 -11 207 -1 0
4 -13 8 -30 8 l-30 0 0 330 c0 258 -3 330 -12 328 -7 -1 -41 -3 -75 -5z"/>
<path d="M6113 5433 c-64 -4 -91 -21 -30 -19 l32 1 3 -318 2 -317 -30 0 c-17
0 -29 -4 -26 -8 6 -10 193 -9 202 1 4 4 -8 7 -28 7 l-34 0 2 130 c3 157 20
227 65 264 33 28 53 31 92 17 39 -15 49 -65 51 -245 l1 -161 -35 -6 c-19 -4
-33 -7 -30 -9 14 -6 210 -4 210 3 0 4 -13 7 -29 7 l-29 0 -4 178 c-3 192 -8
212 -63 248 -63 41 -174 11 -207 -56 l-18 -35 -1 60 c-3 241 -4 260 -19 261
-8 0 -43 -1 -77 -3z"/>
<path d="M8018 5433 c-32 -2 -58 -8 -58 -14 0 -5 6 -9 13 -8 53 7 53 8 52
-125 0 -121 -6 -157 -19 -119 -19 54 -114 76 -184 42 -68 -34 -103 -107 -104
-219 -1 -106 31 -185 89 -221 37 -23 99 -27 134 -9 30 16 69 59 69 77 0 8 4
12 8 9 5 -3 8 -21 7 -40 -1 -20 1 -36 4 -37 28 -5 124 -3 138 3 12 4 6 7 -19
7 l-38 1 0 330 c0 308 -1 330 -17 328 -10 -1 -44 -3 -75 -5z m-58 -250 c44
-26 65 -84 64 -178 0 -129 -41 -218 -104 -228 -37 -6 -67 12 -87 52 -26 52
-26 271 0 319 28 51 77 65 127 35z"/>
<path d="M8303 5433 c-35 -2 -63 -8 -63 -14 0 -5 6 -9 13 -8 6 1 21 1 32 0 20
-1 20 -7 20 -313 l0 -313 -32 -3 c-18 -2 -33 -6 -33 -10 0 -4 47 -7 105 -7 58
0 105 3 105 8 0 4 -13 7 -30 7 l-30 0 0 115 c0 103 2 115 18 116 9 0 26 2 37
4 56 11 85 -33 85 -129 0 -36 5 -76 11 -90 13 -27 49 -44 91 -42 33 2 50 16
20 16 -25 0 -29 13 -36 118 -5 85 -21 116 -72 132 l-36 12 29 17 c37 23 49 40
58 78 7 37 -18 92 -45 95 -46 5 -57 3 -77 -15 -27 -24 -30 -59 -7 -81 18 -19
55 -21 72 -4 18 18 15 56 -5 67 -10 5 -14 13 -10 17 4 5 15 4 24 -2 30 -19 37
-40 27 -80 -11 -45 -48 -71 -130 -90 l-54 -12 0 209 c0 162 -3 209 -12 207 -7
-1 -41 -3 -75 -5z"/>
<path d="M2505 5394 c-24 -24 -16 -76 14 -90 53 -27 100 31 67 81 -19 29 -57
33 -81 9z"/>
<path d="M3070 5390 c-31 -31 -25 -66 16 -88 50 -26 98 45 58 89 -22 24 -49
24 -74 -1z"/>
<path d="M4960 5390 c-31 -31 -25 -67 15 -87 37 -20 90 19 77 57 -16 49 -59
63 -92 30z"/>
<path d="M1334 5382 c3 -6 19 -9 36 -8 16 1 30 0 31 -3 1 -8 1 -551 0 -573 -1
-14 -10 -18 -36 -18 -19 0 -35 -3 -35 -7 0 -5 56 -8 125 -8 69 0 125 3 125 7
0 4 -17 8 -37 10 l-38 3 0 125 0 125 50 2 c137 5 193 25 232 84 33 50 36 139
7 190 -36 63 -75 74 -283 77 -118 3 -181 0 -177 -6z m322 -30 c31 -17 49 -69
48 -142 0 -110 -41 -152 -147 -154 l-52 -1 -1 155 c-1 149 0 155 20 160 27 8
106 -3 132 -18z"/>
<path d="M5870 5314 c0 -9 -9 -32 -21 -51 -16 -25 -32 -37 -65 -45 -52 -14
-58 -28 -11 -28 l32 0 0 -186 c-1 -232 7 -254 89 -254 33 0 45 7 78 40 21 23
38 48 38 57 0 12 -3 13 -15 3 -8 -6 -17 -20 -20 -30 -9 -29 -53 -54 -71 -39
-21 18 -21 409 1 409 8 0 15 5 15 10 0 6 -7 10 -15 10 -12 0 -15 13 -15 60 0
33 -4 60 -10 60 -5 0 -10 -7 -10 -16z"/>
<path d="M3535 5223 c-35 -9 -66 -35 -85 -72 l-19 -36 -1 52 c0 49 -2 53 -22
49 -13 -3 -47 -5 -75 -5 -30 -1 -53 -6 -53 -12 0 -5 8 -9 18 -8 49 5 47 21 46
-308 l0 -308 -26 0 c-15 0 -30 -3 -34 -7 -4 -5 41 -8 99 -8 66 0 107 4 107 10
0 6 -13 8 -30 5 l-30 -5 0 127 0 128 23 -26 c32 -37 59 -49 113 -49 112 0 173
92 169 255 -2 113 -49 194 -122 214 -40 11 -46 12 -78 4z m65 -51 c20 -21 30
-43 35 -83 10 -72 8 -191 -5 -238 -17 -64 -67 -91 -126 -66 -46 19 -67 65 -72
161 -10 187 82 311 168 226z"/>
<path d="M4669 5216 c-33 -16 -43 -62 -18 -87 23 -23 52 -24 73 -3 20 19 20
38 1 58 -19 18 -19 26 -2 26 8 0 24 -11 37 -25 43 -45 36 -191 -14 -301 -27
-58 -61 -94 -89 -94 -10 0 -31 13 -47 29 -44 48 -68 157 -73 341 l-2 55 -70
-3 c-74 -4 -117 -22 -52 -22 l37 0 1 -72 c1 -88 7 -152 18 -181 16 -42 -52
-147 -95 -147 -75 0 -119 148 -124 412 0 13 -6 17 -22 14 -13 -3 -47 -5 -75
-5 -32 -1 -53 -5 -53 -12 0 -7 12 -10 30 -7 17 3 30 2 31 -1 0 -3 2 -48 5 -99
4 -109 24 -196 60 -262 61 -112 175 -106 236 13 l21 41 23 -46 c33 -65 74 -92
129 -86 51 6 85 36 120 105 68 137 67 329 -2 358 -31 13 -60 13 -84 1z"/>
<path d="M5435 5223 c-32 -9 -67 -35 -86 -68 -19 -31 -22 -26 -19 33 1 30 0
32 -25 28 -15 -3 -51 -6 -81 -7 -30 -1 -54 -6 -54 -11 0 -5 8 -8 18 -7 55 5
52 16 52 -206 l0 -205 -32 0 c-17 0 -28 -3 -24 -7 9 -10 206 -10 206 0 0 4
-13 7 -29 7 -16 0 -31 6 -33 13 -12 33 0 257 16 305 27 81 91 121 146 92 32
-17 42 -75 42 -224 0 -202 3 -186 -34 -186 -17 0 -28 -3 -24 -7 9 -10 206 -10
206 -1 0 4 -13 8 -30 8 l-30 0 -1 153 c-1 210 -7 236 -63 272 -25 17 -88 26
-121 18z"/>
<path d="M6770 5213 c-84 -29 -128 -97 -134 -210 -9 -155 68 -255 195 -254 62
0 111 22 141 62 32 45 51 89 37 89 -5 0 -16 -15 -24 -32 -19 -43 -35 -62 -64
-78 -85 -45 -186 18 -192 120 -4 64 -2 66 44 65 64 -1 154 13 186 29 55 29 73
124 33 170 -44 49 -142 66 -222 39z m120 -21 c16 -13 24 -32 28 -70 8 -86 -26
-118 -135 -128 -59 -5 -57 -7 -53 71 4 110 93 181 160 127z"/>
<path d="M7322 5215 c-17 -8 -41 -32 -56 -57 l-26 -43 3 50 c2 48 1 50 -23 48
-14 0 -49 -2 -77 -4 -29 -1 -53 -6 -53 -11 0 -5 8 -8 18 -7 49 5 47 13 47
-206 l0 -205 -34 0 c-19 0 -31 -3 -27 -7 9 -9 194 -10 209 -1 7 4 -5 8 -26 8
l-38 0 2 123 c4 186 30 273 92 298 33 14 74 4 91 -23 14 -24 1 -34 -19 -14
-21 20 -39 20 -59 0 -52 -51 30 -118 84 -69 26 24 26 79 0 105 -11 11 -23 21
-27 21 -35 6 -55 4 -81 -6z"/>
<path d="M2505 5212 c-33 -1 -64 -8 -70 -13 -7 -7 -2 -10 15 -9 58 5 55 17 54
-203 l0 -202 -32 -3 c-18 -2 -32 -6 -32 -10 0 -4 47 -7 105 -7 58 0 105 3 105
7 0 5 -13 8 -30 8 l-30 0 -2 217 c-2 135 -7 217 -13 218 -5 0 -37 -1 -70 -3z"/>
<path d="M3063 5213 c-35 -2 -63 -9 -63 -14 0 -6 10 -10 23 -9 12 1 27 2 33 1
7 -1 10 -66 10 -203 l-1 -203 -35 -6 c-19 -4 -30 -7 -25 -9 28 -6 185 -5 202
1 13 5 7 8 -19 8 l-38 1 1 188 c1 255 1 252 -13 250 -7 -1 -41 -3 -75 -5z"/>
<path d="M4953 5212 c-65 -3 -89 -22 -29 -22 l34 0 0 -205 -1 -205 -35 0 c-20
0 -32 -3 -29 -7 8 -8 187 -11 207 -4 9 3 0 8 -20 11 l-35 5 0 214 c-1 181 -3
214 -15 215 -8 1 -43 0 -77 -2z"/>
<path d="M5930 5200 c0 -12 69 -10 76 2 3 4 -13 8 -35 8 -23 0 -41 -5 -41 -10z"/>
<path d="M3844 5001 c-14 -14 7 -19 91 -19 64 0 95 4 92 11 -3 10 -173 17
-183 8z"/>
<path d="M7518 4856 c-22 -16 -24 -69 -3 -86 22 -18 66 -15 82 6 40 55 -25
122 -79 80z"/>
</g>
</svg>
